HIERARCHY
ROOT pelvis
{
	OFFSET 0.000000 0.000000 0.000000
	CHANNELS 6 Xposition Yposition Zposition Xrotation Yrotation Zrotation
	JOINT l_hip
	{
		OFFSET 0.195211 -0.245059 -0.022011
		CHANNELS 3 Xrotation Yrotation Zrotation
		JOINT l_knee
		{
			OFFSET 0.083896 -0.996307 -0.018298
			CHANNELS 3 Xrotation Yrotation Zrotation
			JOINT l_ankle
			{
				OFFSET -0.031606 -1.048662 -0.119000
				CHANNELS 3 Xrotation Yrotation Zrotation
				JOINT l_foot
				{
					OFFSET 0.063841 -0.149483 0.312863
					CHANNELS 3 Xrotation Yrotation Zrotation
					End Site
					{
						OFFSET 0.000000 0.000000 0.000000
					}
				}
			}
		}
	}
	JOINT r_hip
	{
		OFFSET -0.188785 -0.243354 -0.013119
		CHANNELS 3 Xrotation Yrotation Zrotation
		JOINT r_knee
		{
			OFFSET -0.098896 -1.013926 -0.025127
			CHANNELS 3 Xrotation Yrotation Zrotation
			JOINT r_ankle
			{
				OFFSET 0.038376 -1.049454 -0.114596
				CHANNELS 3 Xrotation Yrotation Zrotation
				JOINT r_foot
				{
					OFFSET -0.060300 -0.126955 0.322518
					CHANNELS 3 Xrotation Yrotation Zrotation
					End Site
					{
						OFFSET 0.000000 0.000000 0.000000
					}
				}
			}
		}
	}
	JOINT spine1
	{
		OFFSET -0.006861 0.282462 -0.060688
		CHANNELS 3 Xrotation Yrotation Zrotation
		JOINT spine2
		{
			OFFSET 0.009796 0.349212 -0.004686
			CHANNELS 3 Xrotation Yrotation Zrotation
			JOINT spine3
			{
				OFFSET 0.005545 0.134239 0.076232
				CHANNELS 3 Xrotation Yrotation Zrotation
				JOINT neck
				{
					OFFSET -0.005369 0.569656 -0.136135
					CHANNELS 3 Xrotation Yrotation Zrotation
					JOINT head
					{
						OFFSET 0.009621 0.170484 0.137338
						CHANNELS 3 Xrotation Yrotation Zrotation
						End Site
						{
							OFFSET 0.000000 0.000000 0.000000
						}
					}
				}
				JOINT l_collar
				{
					OFFSET 0.205981 0.322192 -0.100872
					CHANNELS 3 Xrotation Yrotation Zrotation
					JOINT l_shoulder
					{
						OFFSET 0.233388 0.086823 -0.019950
						CHANNELS 3 Xrotation Yrotation Zrotation
						JOINT l_elbow
						{
							OFFSET 0.687295 -0.032736 -0.075278
							CHANNELS 3 Xrotation Yrotation Zrotation
							JOINT l_wrist
							{
								OFFSET 0.651109 0.024639 0.000120
								CHANNELS 3 Xrotation Yrotation Zrotation
								JOINT l_hand
								{
									OFFSET 0.217934 -0.026487 -0.036124
									CHANNELS 3 Xrotation Yrotation Zrotation
									End Site
									{
										OFFSET 0.000000 0.000000 0.000000
									}
								}
							}
						}
					}
				}
				JOINT r_collar
				{
					OFFSET -0.210726 0.316244 -0.114374
					CHANNELS 3 Xrotation Yrotation Zrotation
					JOINT r_shoulder
					{
						OFFSET -0.244017 0.089684 -0.026814
						CHANNELS 3 Xrotation Yrotation Zrotation
						JOINT r_elbow
						{
							OFFSET -0.672913 -0.035979 -0.055153
							CHANNELS 3 Xrotation Yrotation Zrotation
							JOINT r_wrist
							{
								OFFSET -0.670689 0.023586 -0.009661
								CHANNELS 3 Xrotation Yrotation Zrotation
								JOINT r_hand
								{
									OFFSET -0.219937 -0.019827 -0.028502
									CHANNELS 3 Xrotation Yrotation Zrotation
									End Site
									{
										OFFSET 0.000000 0.000000 0.000000
									}
								}
							}
						}
					}
				}
			}
		}
	}
}
MOTION
Frames: 15
Frame Time: 0.016667
0.000000 0.000000 0.000000 0.000000 0.000000 0.000000 -6.439098 12.921036 9.366080 4.746176 6.339768 -3.614709 0.000000 0.000000 0.000000 0.000000 0.000000 0.000000 -2.101273 -9.690337 -3.213351 -1.844422 -14.241100 5.759595 0.000000 0.000000 0.000000 0.000000 0.000000 0.000000 22.258928 4.163167 -2.091096 5.311328 -1.350687 1.756021 1.250850 -0.000068 2.970017 25.155347 12.723856 17.505619 25.109401 -3.231679 -2.113124 -0.363547 -6.022104 -21.793288 -5.960224 -16.844453 -65.560892 9.639221 -35.823908 19.891312 0.000000 0.000000 0.000000 0.000000 0.000000 0.000000 -8.806210 14.384464 11.299691 -29.627210 41.835607 70.786817 143.907240 69.638943 -164.058926 0.000000 0.000000 0.000000 0.000000 0.000000 0.000000 
0.000000 0.000000 0.000000 0.000000 0.000000 0.000000 -6.434875 12.937997 9.344259 4.753775 6.362983 -3.634807 0.000000 0.000000 0.000000 0.000000 0.000000 0.000000 -2.120932 -9.690059 -3.238592 -1.840532 -14.227037 5.741949 0.000000 0.000000 0.000000 0.000000 0.000000 0.000000 22.259878 4.182999 -2.131822 5.310194 -1.317226 1.722608 1.260265 0.023117 2.946563 25.189371 12.846721 17.471597 25.173336 -3.135083 -2.176750 -0.359590 -5.997795 -21.779723 -5.959496 -16.829363 -65.579471 9.651228 -35.755095 19.882218 0.000000 0.000000 0.000000 0.000000 0.000000 0.000000 -8.797115 14.375108 11.297960 -29.652659 41.855920 70.818571 143.918536 69.648756 -164.054497 0.000000 0.000000 0.000000 0.000000 0.000000 0.000000 
0.000000 0.000000 0.000000 0.000000 0.000000 0.000000 -6.197675 13.244994 9.290307 4.762808 6.595699 -3.768282 0.000000 0.000000 0.000000 0.000000 0.000000 0.000000 -1.982410 -9.645191 -3.225250 -2.058227 -14.129741 5.503443 0.000000 0.000000 0.000000 0.000000 0.000000 0.000000 22.376253 4.257242 -2.147772 5.209068 -1.185285 1.690151 1.282633 0.139954 2.976280 25.857113 13.746895 16.911114 25.671730 -2.351833 -2.719483 -0.406876 -5.886738 -21.573371 -5.925429 -16.770728 -65.884413 9.992554 -35.100088 19.855605 0.000000 0.000000 0.000000 0.000000 0.000000 0.000000 -8.652365 14.320313 11.235079 -29.932551 41.941498 71.231512 143.666050 69.658310 -163.635334 0.000000 0.000000 0.000000 0.000000 0.000000 0.000000 
0.000000 0.000000 0.000000 0.000000 0.000000 0.000000 -6.163672 13.338791 9.226877 4.862114 6.684420 -3.866047 0.000000 0.000000 0.000000 0.000000 0.000000 0.000000 -1.964791 -9.639143 -3.325533 -2.109574 -14.093135 5.409223 0.000000 0.000000 0.000000 0.000000 0.000000 0.000000 22.418402 4.311454 -2.169623 5.153973 -1.149805 1.649639 1.309098 0.196232 2.948608 26.205616 13.617891 16.575617 25.835421 -2.448086 -2.812313 -0.416535 -5.884648 -21.426554 -5.881877 -16.835699 -66.045058 10.169944 -34.921979 19.872578 0.000000 0.000000 0.000000 0.000000 0.000000 0.000000 -8.615337 14.386050 11.190117 -30.036229 41.973671 71.387451 143.720758 69.601881 -163.621859 0.000000 0.000000 0.000000 0.000000 0.000000 0.000000 
0.000000 0.000000 0.000000 0.000000 0.000000 0.000000 -6.171613 13.334703 9.214350 4.875096 6.692778 -3.871195 0.000000 0.000000 0.000000 0.000000 0.000000 0.000000 -1.980148 -9.645041 -3.345526 -2.094878 -14.086769 5.413443 0.000000 0.000000 0.000000 0.000000 0.000000 0.000000 22.408202 4.314366 -2.183359 5.157942 -1.141362 1.635176 1.313322 0.200971 2.932040 26.210832 13.608645 16.566061 25.857873 -2.475394 -2.823170 -0.415113 -5.877784 -21.415571 -5.891311 -16.842154 -66.055058 10.174133 -34.905951 19.868331 0.000000 0.000000 0.000000 0.000000 0.000000 0.000000 -8.619393 14.388166 11.188601 -30.045845 41.985398 71.399978 143.742812 69.601611 -163.636436 0.000000 0.000000 0.000000 0.000000 0.000000 0.000000 
0.000000 0.000000 0.000000 0.000000 0.000000 0.000000 -6.041860 13.360212 9.143107 5.084514 6.721902 -3.947711 0.000000 0.000000 0.000000 0.000000 0.000000 0.000000 -1.207787 -9.714105 -3.319013 -2.907460 -14.208686 5.225202 0.000000 0.000000 0.000000 0.000000 0.000000 0.000000 22.324967 4.566216 -2.238197 5.162297 -1.352157 1.766693 1.374388 0.283461 2.968122 27.516727 12.624634 15.682016 25.887940 -3.557821 -2.601941 -0.276345 -6.152499 -20.941488 -5.768970 -17.085411 -66.289687 10.480032 -35.062499 19.859872 0.000000 0.000000 0.000000 0.000000 0.000000 0.000000 -8.439684 14.688982 11.191240 -30.314764 41.909544 71.891350 143.619517 69.222673 -163.193596 0.000000 0.000000 0.000000 0.000000 0.000000 0.000000 
0.000000 0.000000 0.000000 0.000000 0.000000 0.000000 -6.057487 13.380337 9.064530 5.201205 6.729160 -4.015967 0.000000 0.000000 0.000000 0.000000 0.000000 0.000000 -1.218455 -9.718684 -3.448297 -2.973493 -14.244826 5.189146 0.000000 0.000000 0.000000 0.000000 0.000000 0.000000 22.388049 4.626430 -2.216609 5.064363 -1.402604 1.718616 1.434053 0.306929 2.929304 27.998864 11.883758 15.356315 25.783642 -4.102747 -2.440318 -0.206108 -6.203383 -20.847410 -5.644974 -17.237357 -66.241615 10.644069 -35.348820 19.864492 0.000000 0.000000 0.000000 0.000000 0.000000 0.000000 -8.391688 14.836187 11.127053 -30.430293 41.970226 71.928117 143.978375 69.171446 -163.356535 0.000000 0.000000 0.000000 0.000000 0.000000 0.000000 
0.000000 0.000000 0.000000 0.000000 0.000000 0.000000 -6.041208 13.386637 8.933712 5.281530 6.743344 -4.043454 0.000000 0.000000 0.000000 0.000000 0.000000 0.000000 -1.210698 -9.733396 -3.579220 -3.067170 -14.189305 5.133959 0.000000 0.000000 0.000000 0.000000 0.000000 0.000000 22.420716 4.644134 -2.209830 5.069465 -1.411116 1.658796 1.477829 0.316631 2.871034 28.224593 11.246373 15.362559 25.787667 -4.664797 -2.224143 -0.167673 -6.242971 -20.783185 -5.635078 -17.387234 -66.158880 10.695031 -35.677382 19.786566 0.000000 0.000000 0.000000 0.000000 0.000000 0.000000 -8.432536 14.968909 11.037833 -30.462956 42.054195 71.914471 144.613446 69.163469 -163.842306 0.000000 0.000000 0.000000 0.000000 0.000000 0.000000 
0.000000 0.000000 0.000000 0.000000 0.000000 0.000000 -6.014794 13.408110 8.804595 5.346155 6.763652 -4.082558 0.000000 0.000000 0.000000 0.000000 0.000000 0.000000 -1.180163 -9.747596 -3.697108 -3.186043 -14.142055 5.070600 0.000000 0.000000 0.000000 0.000000 0.000000 0.000000 22.480661 4.642194 -2.210851 5.076229 -1.418489 1.596811 1.511706 0.312919 2.824147 28.396793 10.652620 15.501225 25.775701 -5.122364 -1.982444 -0.129729 -6.303028 -20.787925 -5.637916 -17.518547 -66.029195 10.690903 -36.067259 19.722069 0.000000 0.000000 0.000000 0.000000 0.000000 0.000000 -8.481865 15.113288 10.951742 -30.473637 42.147943 71.851774 145.268122 69.163567 -164.377593 0.000000 0.000000 0.000000 0.000000 0.000000 0.000000 
0.000000 0.000000 0.000000 0.000000 0.000000 0.000000 -5.949868 13.442600 8.673382 5.360742 6.780044 -4.126332 0.000000 0.000000 0.000000 0.000000 0.000000 0.000000 -1.133827 -9.759409 -3.819921 -3.294721 -14.104359 5.019302 0.000000 0.000000 0.000000 0.000000 0.000000 0.000000 22.564750 4.631523 -2.211498 5.104584 -1.425996 1.534557 1.535517 0.297854 2.793528 28.484836 10.144270 15.723019 25.718224 -5.455644 -1.747396 -0.109443 -6.374359 -20.853175 -5.651942 -17.629551 -65.881391 10.622670 -36.496528 19.687085 0.000000 0.000000 0.000000 0.000000 0.000000 0.000000 -8.536625 15.258925 10.876974 -30.453895 42.244549 71.714516 145.904252 69.152867 -164.925640 0.000000 0.000000 0.000000 0.000000 0.000000 0.000000 
0.000000 0.000000 0.000000 0.000000 0.000000 0.000000 -5.856134 13.490433 8.552062 5.325815 6.795748 -4.190415 0.000000 0.000000 0.000000 0.000000 0.000000 0.000000 -1.082599 -9.773713 -3.939806 -3.382291 -14.092500 4.965483 0.000000 0.000000 0.000000 0.000000 0.000000 0.000000 22.661277 4.616055 -2.217873 5.128538 -1.441584 1.482674 1.546027 0.276940 2.780476 28.493399 9.734916 15.983701 25.663102 -5.685360 -1.520397 -0.099571 -6.442020 -20.941879 -5.680016 -17.722673 -65.770750 10.466284 -36.938404 19.646489 0.000000 0.000000 0.000000 0.000000 0.000000 0.000000 -8.589481 15.389177 10.816089 -30.445765 42.338741 71.577526 146.444825 69.129542 -165.407420 0.000000 0.000000 0.000000 0.000000 0.000000 0.000000 
0.000000 0.000000 0.000000 0.000000 0.000000 0.000000 -5.801203 13.535188 8.463720 5.288326 6.817418 -4.270531 0.000000 0.000000 0.000000 0.000000 0.000000 0.000000 -1.069370 -9.784906 -4.045390 -3.440475 -14.102640 4.918949 0.000000 0.000000 0.000000 0.000000 0.000000 0.000000 22.752340 4.596542 -2.224624 5.128970 -1.459166 1.450498 1.545457 0.249201 2.785912 28.455319 9.458697 16.276429 25.625450 -5.789637 -1.321048 -0.094358 -6.496180 -21.031754 -5.741819 -17.811725 -65.707649 10.270613 -37.335728 19.592222 0.000000 0.000000 0.000000 0.000000 0.000000 0.000000 -8.631646 15.487274 10.755917 -30.483162 42.438137 71.490343 146.900516 69.118806 -165.831639 0.000000 0.000000 0.000000 0.000000 0.000000 0.000000 
0.000000 0.000000 0.000000 0.000000 0.000000 0.000000 -5.774107 13.572262 8.402129 5.250840 6.836972 -4.348034 0.000000 0.000000 0.000000 0.000000 0.000000 0.000000 -1.086664 -9.798351 -4.139892 -3.472650 -14.126387 4.893664 0.000000 0.000000 0.000000 0.000000 0.000000 0.000000 22.813890 4.574604 -2.224350 5.119374 -1.476607 1.436456 1.534642 0.220591 2.804480 28.403247 9.349847 16.548181 25.582650 -5.750294 -1.185069 -0.096982 -6.533179 -21.105766 -5.837495 -17.889722 -65.705400 10.076038 -37.634097 19.539790 0.000000 0.000000 0.000000 0.000000 0.000000 0.000000 -8.661179 15.547061 10.688865 -30.588187 42.537641 71.486701 147.173264 69.130969 -166.101881 0.000000 0.000000 0.000000 0.000000 0.000000 0.000000 
0.000000 0.000000 0.000000 0.000000 0.000000 0.000000 -5.789063 13.584666 8.357723 5.224376 6.855839 -4.417990 0.000000 0.000000 0.000000 0.000000 0.000000 0.000000 -1.138761 -9.799575 -4.216865 -3.485973 -14.163121 4.874315 0.000000 0.000000 0.000000 0.000000 0.000000 0.000000 22.840513 4.553860 -2.220628 5.082091 -1.494276 1.436969 1.522707 0.197571 2.830917 28.353317 9.371803 16.773130 25.555354 -5.602733 -1.093352 -0.112176 -6.559344 -21.145731 -5.964240 -17.967958 -65.777106 9.858883 -37.828815 19.484147 0.000000 0.000000 0.000000 0.000000 0.000000 0.000000 -8.676437 15.569639 10.609001 -30.745029 42.617048 71.570894 147.275532 69.183784 -166.243647 0.000000 0.000000 0.000000 0.000000 0.000000 0.000000 
0.000000 0.000000 0.000000 0.000000 0.000000 0.000000 -5.828328 13.571961 8.314947 5.208099 6.886210 -4.476058 0.000000 0.000000 0.000000 0.000000 0.000000 0.000000 -1.220331 -9.771564 -4.282842 -3.483322 -14.202074 4.851391 0.000000 0.000000 0.000000 0.000000 0.000000 0.000000 22.833189 4.542202 -2.215829 5.014388 -1.503557 1.444295 1.512446 0.184867 2.858843 28.353739 9.502508 16.942855 25.553309 -5.368888 -1.042378 -0.141290 -6.593296 -21.180250 -6.103897 -18.051767 -65.865696 9.629149 -37.899834 19.409195 0.000000 0.000000 0.000000 0.000000 0.000000 0.000000 -8.673570 15.570150 10.550001 -30.916283 42.683716 71.688434 147.263348 69.260609 -166.296326 0.000000 0.000000 0.000000 0.000000 0.000000 0.000000 
